<svg width="1440" height="1440" viewBox="0 0 1440 1440" fill="none" xmlns="http://www.w3.org/2000/svg">
<path fill-rule="evenodd" clip-rule="evenodd" d="M463.604 85.7532L1209.88 516.616C1366.14 606.838 1366.14 832.392 1209.88 922.614L1176.79 941.715L1147.8 958.455C1148.11 954.434 1147.92 950.413 1147.22 946.392C1145.42 935.552 1141.13 926.067 1134.35 917.937C1128.03 909.807 1119.45 904.387 1108.61 901.677C1098.22 898.967 1086.25 900.548 1072.7 906.42C1059.6 912.743 1046.28 917.486 1032.73 920.647C1019.18 923.357 1006.53 924.712 994.786 924.712C966.783 924.712 943.297 919.518 924.327 909.13C905.808 898.29 891.807 882.707 882.322 862.383C872.837 841.606 868.094 816.313 868.094 786.503C868.094 756.693 872.837 731.626 882.322 711.301C891.807 690.976 905.808 675.619 924.327 665.231C943.297 654.391 966.783 648.971 994.786 648.971C1009.24 648.971 1023.02 650.778 1036.11 654.391C1049.66 657.553 1063.21 662.295 1076.76 668.619C1088.51 674.49 1099.35 676.071 1109.28 673.361C1119.22 670.199 1127.35 664.328 1133.67 655.746C1140 647.165 1143.84 637.454 1145.19 626.614C1147 615.774 1145.42 605.16 1140.45 594.771C1135.48 584.383 1126.67 575.802 1114.03 569.027C1096.86 559.542 1076.99 552.541 1054.41 548.024C1032.27 543.056 1010.82 540.572 990.044 540.572C950.749 540.572 915.293 546.443 883.677 558.187C852.512 569.478 825.864 585.964 803.732 607.644C782.052 629.324 765.341 655.294 753.598 685.556C742.306 715.818 736.66 749.466 736.66 786.503C736.66 836.186 746.597 879.546 766.47 916.582C786.795 953.619 815.927 982.299 853.867 1002.62C891.807 1022.95 937.199 1033.11 990.044 1033.11C1000.49 1033.11 1010.94 1032.55 1021.39 1031.44L985.46 1052.18L463.604 1353.48C307.337 1443.7 112 1330.92 112 1150.47V288.755C112 108.312 307.337 -4.46837 463.604 85.7532ZM425.26 1020.92C436.1 1028.14 450.102 1031.76 467.265 1031.76C484.428 1031.76 498.204 1028.14 508.592 1020.92C518.98 1013.69 527.562 1002.17 534.337 986.364L698.969 624.581C706.195 608.773 708.454 594.545 705.744 581.899C703.485 569.252 697.614 559.541 688.129 552.766C678.644 545.54 666.901 541.926 652.899 541.926C635.736 541.926 622.412 545.991 612.927 554.121C603.442 561.8 595.312 573.543 588.537 589.351L469.277 865.869L350.058 590.029C343.283 574.22 335.153 562.251 325.668 554.121C316.635 545.991 302.859 541.926 284.341 541.926C269.436 541.926 257.015 545.54 247.079 552.766C237.142 559.541 230.819 569.252 228.109 581.899C225.399 594.545 227.657 608.773 234.884 624.581L398.838 986.364C406.064 1002.17 414.872 1013.69 425.26 1020.92Z" fill="#EE7F22"/>
<path fill-rule="evenodd" clip-rule="evenodd" d="M1170.76 494.029L1209.88 516.616C1366.14 606.838 1366.14 832.392 1209.88 922.613L1176.79 941.715L1147.8 958.455C1148.11 954.434 1147.92 950.414 1147.22 946.393C1145.42 935.553 1141.13 926.068 1134.35 917.938C1128.03 909.808 1119.45 904.388 1108.61 901.678C1098.22 898.968 1086.25 900.549 1072.7 906.42C1059.6 912.744 1046.28 917.486 1032.73 920.648C1019.18 923.358 1006.53 924.713 994.786 924.713C966.783 924.713 943.297 919.519 924.327 909.13C905.808 898.29 891.807 882.708 882.322 862.383C872.837 841.607 868.094 816.313 868.094 786.503C868.094 756.694 872.837 731.626 882.322 711.301C891.807 690.977 905.808 675.62 924.327 665.232C943.297 654.392 966.783 648.972 994.786 648.972C1009.24 648.972 1023.02 650.778 1036.11 654.392C1049.66 657.553 1063.21 662.296 1076.76 668.619C1088.51 674.491 1099.35 676.072 1109.28 673.362C1119.22 670.2 1127.35 664.328 1133.67 655.747C1140 647.165 1143.84 637.454 1145.19 626.614C1147 615.774 1145.42 605.16 1140.45 594.772C1135.48 584.384 1126.67 575.802 1114.03 569.027C1099.73 561.125 1083.55 554.947 1065.49 550.493L1170.76 494.029ZM990.044 1033.11C1000.49 1033.11 1010.94 1032.55 1021.39 1031.44L985.46 1052.18L463.604 1353.48C307.337 1443.7 112 1330.92 112 1150.47V1061.92L370.293 923.377L398.838 986.364C406.064 1002.17 414.872 1013.69 425.26 1020.92C436.1 1028.14 450.102 1031.76 467.265 1031.76C484.428 1031.76 498.204 1028.14 508.592 1020.92C518.98 1013.69 527.562 1002.17 534.337 986.364L625.223 786.639L742.734 723.609C738.685 743.359 736.66 764.324 736.66 786.503C736.66 836.187 746.597 879.546 766.47 916.583C786.795 953.619 815.927 982.3 853.867 1002.62C891.807 1022.95 937.199 1033.11 990.044 1033.11Z" fill="#1AB7EA"/>
</svg>
